<svg width="24" height="24" viewBox="0 0 24 24" fill="none" xmlns="http://www.w3.org/2000/svg">
<path fill-rule="evenodd" clip-rule="evenodd" d="M11.5141 0C7.26723 2.06989 2.78545 2.88476 1.07541 3.03346C0.994034 4.26277 0.980106 5.43739 1.02596 6.55762H8.25748C8.55312 6.55762 8.79279 6.79729 8.79279 7.09293V7.36059C8.79279 7.65624 8.55312 7.89591 8.25748 7.89591H1.11094C1.20021 8.92704 1.34152 9.90836 1.52814 10.8401H11.3803C11.676 10.8401 11.9157 11.0798 11.9157 11.3755V11.6431C11.9157 11.9388 11.676 12.1784 11.3803 12.1784H1.83539C2.1086 13.2297 2.4413 14.2109 2.82212 15.1227H8.25767C8.55331 15.1227 8.79298 15.3623 8.79298 15.658V15.9256C8.79298 16.2213 8.55331 16.461 8.25767 16.461H3.43957C3.94073 17.4484 4.50025 18.3404 5.09972 19.1375H10.1313C10.4269 19.1375 10.6666 19.3772 10.6666 19.6729V19.9405C10.6666 20.2362 10.4269 20.4758 10.1313 20.4758H6.22314C7.99968 22.3696 9.99801 23.5389 11.8263 24C24.317 19.4052 22.0866 3.03346 22.0419 3.03346C20.5252 3.03346 15.2167 1.829 11.5141 0Z" fill="black"/>
</svg>
