<svg width="24" height="24" viewBox="0 0 24 24" fill="none" xmlns="http://www.w3.org/2000/svg">
<g clip-path="url(#clip0)">
<path d="M15.1611 22.7707C15.1026 22.7122 15.044 22.6537 14.9855 22.6537C13.6391 22.361 12.2928 21.8927 11.1221 21.1902C8.66354 19.7268 7.02451 17.561 6.96597 15.0439C6.96597 14.1073 7.14158 13.1707 7.55134 12.2927C7.78549 11.7073 9.19036 9.71708 9.36597 9.36586C10.3026 7.90244 10.0099 8.01952 8.66354 6.20488L6.79037 3.45366L5.5611 1.58049C4.85866 2.04878 4.15622 2.63415 3.51232 3.21951C2.22451 4.50732 1.22939 6.14634 0.644023 7.90244C0.0586575 9.65854 -0.116952 11.5317 0.117194 13.3463C0.35134 15.161 1.05378 16.9171 2.10744 18.439C3.1611 19.961 4.56597 21.2488 6.14646 22.1268C1.99037 19.0829 0.0586575 14.4585 1.63915 9.83415C2.0489 8.60488 2.6928 7.43415 3.51232 6.38049L4.85866 8.37074C4.91719 8.48781 4.97573 8.60488 4.97573 8.78049C4.97573 8.89756 4.91719 9.07317 4.85866 9.19025C4.21476 10.0098 3.68793 10.8878 3.33671 11.8829C1.58061 16.9756 6.32207 22.2439 11.2977 23.122C12.2343 23.2976 13.9904 23.4732 14.9269 23.239C14.9855 23.239 15.044 23.1805 15.044 23.1805C15.1026 23.122 15.1026 23.122 15.1026 23.0634C15.1026 23.0049 15.1026 22.9463 15.1026 22.8878C15.2196 22.8878 15.2196 22.8293 15.1611 22.7707Z" fill="url(#paint0_linear)"/>
<path d="M8.83905 0.643906C8.89759 0.702443 8.95613 0.760979 9.01466 0.760979C10.361 1.05366 11.7073 1.52195 12.8781 2.22439C15.3366 3.68781 16.9756 5.85366 17.0342 8.37074C17.0342 9.30732 16.8586 10.2439 16.4488 11.122C16.2147 11.7073 14.8098 13.6976 14.6342 14.0488C13.6976 15.5122 13.9903 15.3951 15.3366 17.2098L17.2098 19.961L18.4976 21.8342C19.2 21.3659 19.9025 20.7805 20.5464 20.1951C21.8342 18.9073 22.8293 17.2683 23.4147 15.5122C24 13.7561 24.1756 11.8829 23.9415 10.0683C23.7073 8.25366 23.0049 6.49756 21.9512 4.97561C20.8976 3.45366 19.4927 2.16586 17.9122 1.28781C22.0683 4.33171 24 8.9561 22.361 13.5805C21.9512 14.8098 21.3073 15.9805 20.4878 17.0342L19.1415 15.0439C19.083 14.9268 19.0244 14.8098 19.0244 14.6342C19.0244 14.5171 19.083 14.3415 19.1415 14.2244C19.7854 13.4049 20.3122 12.5268 20.6634 11.5317C22.4195 6.43903 17.6781 1.17074 12.7025 0.292687C11.7659 0.117077 10.0098 -0.058533 9.0732 0.175613C9.01466 0.175613 8.95613 0.23415 8.95613 0.23415C8.83905 0.23415 8.78052 0.292687 8.78052 0.351223C8.78052 0.40976 8.78052 0.468296 8.78052 0.526833C8.78052 0.526833 8.78052 0.58537 8.83905 0.643906Z" fill="url(#paint1_linear)"/>
</g>
<defs>
<linearGradient id="paint0_linear" x1="4.48701" y1="21.2076" x2="13.2552" y2="6.01955" gradientUnits="userSpaceOnUse">
<stop stop-color="#174E5B"/>
<stop offset="0.07" stop-color="#195A6C"/>
<stop offset="0.21" stop-color="#1E779A"/>
<stop offset="0.4" stop-color="#27A7E3"/>
<stop offset="0.47" stop-color="#2ABAFF"/>
<stop offset="0.7" stop-color="#1DDAF0"/>
<stop offset="1" stop-color="#0EFFE0"/>
</linearGradient>
<linearGradient id="paint1_linear" x1="19.5148" y1="2.20748" x2="10.7459" y2="17.3944" gradientUnits="userSpaceOnUse">
<stop stop-color="#174E5B"/>
<stop offset="0.07" stop-color="#195A6C"/>
<stop offset="0.21" stop-color="#1E779A"/>
<stop offset="0.4" stop-color="#27A7E3"/>
<stop offset="0.47" stop-color="#2ABAFF"/>
<stop offset="0.7" stop-color="#1DDAF0"/>
<stop offset="1" stop-color="#0EFFE0"/>
</linearGradient>
<clipPath id="clip0">
<rect width="24" height="23.4146" fill="white"/>
</clipPath>
</defs>
</svg>
