<svg xmlns="http://www.w3.org/2000/svg" width="24" height="24" fill="none"  xmlns:v="https://vecta.io/nano"><g clip-path="url(#A)" fill="#5f45ba"><path d="M6.416 3.051a1.36 1.36 0 0 1-1.86.474 1.36 1.36 0 0 1-.474-1.86 1.36 1.36 0 0 1 1.86-.474 1.36 1.36 0 0 1 .474 1.86zm-4.633-.602a.96.96 0 0 1-1.314.335.96.96 0 0 1-.335-1.314.96.96 0 0 1 1.314-.335.96.96 0 0 1 .335 1.314zm12.898 19.644c4.973-.584 8.972-4.65 9.299-9.824.367-5.822-4.056-10.84-9.878-11.206a10.6 10.6 0 0 0-2.046.07c-1.399.114-2.581.648-2.581.648-.958.468-1.576 1.25-1.576 2.297 0 1.361 1.103 2.465 2.464 2.465.228 0 1.015-.25 1.202-.314a5.65 5.65 0 0 1 2.23-.304 5.69 5.69 0 0 1 4.622 2.924 5.67 5.67 0 0 1 .702 3.116c-.198 3.138-2.902 5.522-6.041 5.324a5.69 5.69 0 0 1-4.396-2.549v.001-.001c-1.138-1.488-.875-3.868-.876-3.898-.047-1.324-1.13-2.382-2.465-2.382a2.47 2.47 0 0 0-2.381 1.824c-.055.206-.084.811-.076.892a10.56 10.56 0 0 0 9.887 10.97 10.57 10.57 0 0 0 1.909-.054zM5.003 6.819a1.76 1.76 0 1 1-3.026-1.798 1.76 1.76 0 1 1 3.026 1.798z"/></g><defs><clipPath id="A"><path fill="#fff" d="M0 0h24v24H0z"/></clipPath></defs></svg>