<svg xmlns="http://www.w3.org/2000/svg" width="24" height="24" fill="none"><path d="M11.935 0c-.232.001-.463.015-.693.043a4.76 4.76 0 0 0-2.854 1.375L6.704 3.111l-.869.863-.917.899-.837.849-1.313 1.306-1 1.04-.588.607C.39 9.608.015 10.696.004 12.143c-.036.552.193 1.271.527 1.954.178.364.42.699.656 1.032.161.228.279.226.496.05.04-.033.076-.072.112-.109l.631-.657.919-.944.949-1.001.464-.465.971-1.027.971-.978 1.068-1.109 1.003-.994 1.285-1.335.802-.797 1.077-1.097.942-.921 2.081-2.089a1.87 1.87 0 0 0 .125-.141c.168-.209.182-.257-.026-.408-.329-.238-.663-.484-1.028-.654A4.84 4.84 0 0 0 11.962 0h-.027zm5.336 4.343c-.646.025-1.206.226-1.627.743-.033.04-.074.074-.112.11l-1.126 1.091-1.154 1.153-.959.951-.989 1.008-1.059 1.027-6.691 6.683c-.196.195-.203.222.002.429l1.487 1.492c.304.306.661.515 1.086.59.405.071.813.075 1.212-.04.293-.084.571-.205.796-.422l1.221-1.176.863-.824 1.692-1.68 1.401-1.352 3.714-3.613c.263-.255.509-.228.699.075.343.549.536 1.144.456 1.796-.067.551-.26 1.066-.644 1.475l-1.376 1.375-.989.965-1.262 1.265-.191.208-.416.427-.936.927-.982 1.013c-.029.03-.064.055-.094.084l-1.056 1.028-.486.488-.838.847c-.164.174-.162.28.031.416.332.234.666.48 1.032.651.671.314 1.371.447 2.092.448h.015c.248-.001.495-.016.741-.044.991-.114 1.85-.523 2.588-1.171.542-.475 1.029-1.014 1.54-1.526l1.129-1.137 2.038-2.045 1.102-1.07 1.097-1.123.812-.955c.157-.232.696-1.074.835-2.309.07-.623.01-1.102-.008-1.234a5.11 5.11 0 0 0-.777-2.042c-.226-.351-.343-.499-1.031-1.181l-3.034-3.057c-.49-.507-1.054-.766-1.74-.766l-.107.002z" fill="url(#A)"/><defs><linearGradient id="A" x1="12" y1="0" x2="12" y2="24" gradientUnits="userSpaceOnUse"><stop stop-color="#ff4920"/></linearGradient></defs></svg>