<svg width="24" height="24" viewBox="0 0 24 24" fill="none" xmlns="http://www.w3.org/2000/svg">
<g clip-path="url(#clip0)">
<path d="M18.6389 4C17.7735 4 16.9802 4.45862 16.5715 5.20689L11.1867 14.6207H7.17212V19.4482H12.5569C13.3983 19.4482 14.1916 18.9896 14.6243 18.2413L19.9851 8.82757H23.9997V4H18.6389Z" fill="#1A5AFF"/>
<path d="M4.18187 19.4482L0 17.0344L6.83201 5.20689C7.26965 4.45862 8.04767 4 8.92294 4H14.3448V8.82757H10.3088L4.18187 19.4482Z" fill="#1A5AFF"/>
<path d="M21.5172 16.4138C22.8827 16.4138 23.9999 15.3586 23.9999 14.0689C23.9999 12.7793 22.8827 11.7241 21.5172 11.7241C20.1517 11.7241 19.0344 12.7793 19.0344 14.0689C19.0344 15.3586 20.1517 16.4138 21.5172 16.4138Z" fill="#1A5AFF"/>
<path d="M0.552002 4V8.68964C3.15475 8.68964 5.24164 6.60275 5.24164 4H0.552002Z" fill="#1A5AFF"/>
</g>
<defs>
<clipPath id="clip0">
<rect width="24" height="24" fill="white"/>
</clipPath>
</defs>
</svg>
