<svg xmlns="http://www.w3.org/2000/svg" width="24" height="24" fill="none"  xmlns:v="https://vecta.io/nano"><g clip-path="url(#A)"><path d="M23.081 7.23l-3.949-3.75-.075-.053c-.125-.1-.266-.179-.416-.232L1.084 0C1.006.011.932.039.866.083L.795.139C.707.228.641.336.6.454L.581.503V.81C2.182 5.269 8.505 19.875 9.75 23.303c.075.233.217.675.484.698h.06c.143 0 .75-.802.75-.802L23.002 8.625a3.54 3.54 0 0 0 .375-.555c.027-.154.014-.312-.037-.459s-.141-.278-.259-.381zM13.83 8.764l4.635-3.844 2.719 2.505-7.354 1.339zm-1.8-.251l-7.98-6.54 12.911 2.381-4.931 4.159zm.72 1.714l8.168-1.316-9.337 11.25 1.17-9.934zM2.966 2.625l8.396 7.125-1.215 10.417L2.966 2.625z" fill="#ff060a"/></g><defs><clipPath id="A"><path fill="#fff" d="M0 0h24v24H0z"/></clipPath></defs></svg>