<svg xmlns="http://www.w3.org/2000/svg" xmlns:xlink="http://www.w3.org/1999/xlink" width="24" height="24" fill="none"><path d="M1.92 14.194c1.06 0 1.92-.879 1.92-1.964s-.86-1.964-1.92-1.964S0 11.145 0 12.23s.86 1.964 1.92 1.964z" fill="url(#A)"/><path d="M8.467 9.802l.117-.173c.201-.33.307-.733.279-1.158-.061-.973-.826-1.768-1.78-1.835-1.122-.078-2.054.828-2.054 1.964a1.97 1.97 0 0 0 .273 1.007c.039.073.089.14.134.201.033.045.067.084.095.134.424.671.664 1.432.664 2.227v.112c0 .8-.24 1.555-.664 2.227-.028.045-.061.089-.095.134-.05.067-.095.134-.134.201-.173.297-.273.638-.273 1.007 0 1.13.932 2.042 2.054 1.964.954-.067 1.719-.861 1.78-1.835a2.03 2.03 0 0 0-.279-1.158 1.18 1.18 0 0 0-.117-.173l-.078-.112c-.435-.683-.681-1.449-.681-2.26v-.112c0-.811.246-1.578.681-2.26l.078-.101z" fill="url(#B)"/><path d="M22.08 14.194c1.06 0 1.92-.879 1.92-1.964s-.86-1.964-1.92-1.964-1.92.879-1.92 1.964.86 1.964 1.92 1.964z" fill="url(#C)"/><path d="M18.614 9.746a1.19 1.19 0 0 0 .089-.14c.173-.296.274-.638.274-1.007 0-1.13-.932-2.042-2.054-1.964-.955.067-1.719.862-1.781 1.835a2 2 0 0 0 .279 1.152l.078.123.262.408a4.1 4.1 0 0 1 .536 2.014v.112c0 .716-.19 1.399-.536 2.014a4.58 4.58 0 0 1-.262.408c-.028.039-.056.078-.078.123a1.97 1.97 0 0 0-.279 1.152c.061.973.826 1.768 1.781 1.835 1.122.078 2.054-.828 2.054-1.964a1.97 1.97 0 0 0-.274-1.007l-.089-.14c-.123-.173-.24-.353-.34-.543-.301-.582-.469-1.219-.469-1.885v-.112c0-.666.168-1.303.469-1.885a6.1 6.1 0 0 1 .34-.531z" fill="url(#D)"/><path d="M13.557 6.115c.028-.039.056-.078.078-.123a1.97 1.97 0 0 0 .279-1.152c-.061-.973-.826-1.768-1.78-1.835-1.122-.078-2.054.828-2.054 1.964a1.97 1.97 0 0 0 .274 1.007l.089.14a4.91 4.91 0 0 1 .34.543 4.08 4.08 0 0 1 .469 1.885v.112a4.08 4.08 0 0 1-.469 1.885c-.1.19-.218.369-.34.543a1.19 1.19 0 0 0-.089.14c-.156.269-.251.576-.268.906v.213c.017.33.112.638.268.906l.089.14c.123.174.24.352.34.543a4.08 4.08 0 0 1 .469 1.885v.112a4.08 4.08 0 0 1-.469 1.885c-.1.19-.218.369-.34.543-.034.045-.061.09-.089.14-.173.297-.274.638-.274 1.007 0 1.13.932 2.042 2.054 1.964.954-.067 1.719-.861 1.781-1.835a2 2 0 0 0-.279-1.152l-.078-.123-.262-.408a4.1 4.1 0 0 1-.536-2.014v-.112c0-.716.19-1.399.536-2.014.078-.14.167-.274.262-.408a.91.91 0 0 0 .078-.123c.184-.302.285-.655.285-1.04 0-.38-.101-.739-.285-1.041l-.078-.123-.262-.408a4.1 4.1 0 0 1-.536-2.014v-.112c0-.716.19-1.399.536-2.014a4.58 4.58 0 0 1 .262-.408z" fill="url(#E)"/><defs><linearGradient id="A" x1="-.017" y1="12.193" x2="24.559" y2="12.658" xlink:href="#F"><stop stop-color="#9f66a9"/><stop offset=".25" stop-color="#6f2c90"/><stop offset=".404" stop-color="#662e91"/><stop offset=".654" stop-color="#4e3594"/><stop offset=".969" stop-color="#263f98"/><stop offset="1" stop-color="#224099"/></linearGradient><linearGradient id="B" x1="-.02" y1="12.098" x2="24.573" y2="12.562" xlink:href="#F"><stop stop-color="#9f66a9"/><stop offset=".25" stop-color="#6f2c90"/><stop offset=".404" stop-color="#662e91"/><stop offset=".654" stop-color="#4e3594"/><stop offset=".969" stop-color="#263f98"/><stop offset="1" stop-color="#224099"/></linearGradient><linearGradient id="C" x1="-.01" y1="11.811" x2="24.566" y2="12.275" xlink:href="#F"><stop stop-color="#9f66a9"/><stop offset=".25" stop-color="#6f2c90"/><stop offset=".404" stop-color="#662e91"/><stop offset=".654" stop-color="#4e3594"/><stop offset=".969" stop-color="#263f98"/><stop offset="1" stop-color="#224099"/></linearGradient><linearGradient id="D" x1="-.023" y1="11.906" x2="24.57" y2="12.37" xlink:href="#F"><stop stop-color="#9f66a9"/><stop offset=".25" stop-color="#6f2c90"/><stop offset=".404" stop-color="#662e91"/><stop offset=".654" stop-color="#4e3594"/><stop offset=".969" stop-color="#263f98"/><stop offset="1" stop-color="#224099"/></linearGradient><linearGradient id="E" x1="-.03" y1="12.002" x2="24.58" y2="12.467" xlink:href="#F"><stop stop-color="#9f66a9"/><stop offset=".25" stop-color="#6f2c90"/><stop offset=".404" stop-color="#662e91"/><stop offset=".654" stop-color="#4e3594"/><stop offset=".969" stop-color="#263f98"/><stop offset="1" stop-color="#224099"/></linearGradient><linearGradient id="F" gradientUnits="userSpaceOnUse"/></defs></svg>