<svg xmlns="http://www.w3.org/2000/svg" width="24" height="24" fill="none"  xmlns:v="https://vecta.io/nano"><path d="M24 11.999a12 12 0 0 1-23.999 0A12 12 0 0 1 12 0a12 12 0 0 1 12 11.999z" fill="#fff"/><path d="M12 0C5.375 0-.007 5.38.002 11.998a12.03 12.03 0 0 0 .609 3.789h3.59V5.694L12 13.492l7.799-7.798v10.094h3.591c.397-1.191.607-2.465.609-3.789C24.011 5.373 18.626.002 12 .002V0z" fill="#f26822"/><path d="M10.206 15.285l-3.404-3.403v6.351H4.201 1.745A12 12 0 0 0 12 24c4.342 0 8.149-2.312 10.255-5.767h-5.059v-6.351L12 17.078l-1.793-1.793z" fill="#4d4d4d"/></svg>